<svg xmlns="http://www.w3.org/2000/svg" version="1.1" xmlns:xlink="http://www.w3.org/1999/xlink" xmlns:svgjs="http://svgjs.dev/svgjs" viewBox="0 0 800 800"><defs><linearGradient x1="50%" y1="0%" x2="50%" y2="100%" id="ccchaos-grad"><stop stop-color="#fd7be5" stop-opacity="1" offset="0%"></stop><stop stop-color="#00c386" stop-opacity="1" offset="100%"></stop></linearGradient></defs><g stroke-width="3" stroke="url(#ccchaos-grad)" fill="none" stroke-linecap="round"><path d="M374.53 23.42Q380.4 32.07 386.69 41.5 393.51 51.22 400.95 60.7 409.11 69.43 418.04 76.99 427.8 83.11 438.44 87.71 449.96 90.93 462.38 93.08 475.67 94.64 489.8 96.17 504.71 98.25 520.32 101.38 536.53 105.93 553.24 112.11 570.32 119.88 587.63 128.98 605.02 138.99 622.34 149.34 639.44 159.42 656.15 168.62 672.32 176.47 687.8 182.66 702.47 187.1 716.19 189.95 728.86 191.58 740.39 192.52 750.72 193.43 759.8 194.97 765.13 205.54 747.64 224.7 730.41 236.01 712.29 247.31 694.69 258.62 678.99 269.93 666.43 281.24 657.98 292.55 654.31 303.86 655.71 315.17 662.06 326.48 672.87 337.79 687.29 349.1 704.2 360.41 722.26 371.72 740.07 383.03 756.22 394.34 769.47 405.65 778.76 416.96 783.37 428.27 782.94 439.58 777.5 450.89 767.48 462.2 753.66 473.52 737.13 484.83 719.18 496.14 701.22 507.45 684.64 518.76 670.76 530.07 660.65 541.38 655.12 552.69 654.58 564 647.11 571.56 640.79 581.63 635.52 593.64 631.18 606.77 627.64 620.03 624.72 632.41 612.77 654.97 604.81 653.8 594.9 656.8 582.37 667.79 574.45 678.19 565.57 690.7 555.72 704.43 544.95 718.32 533.31 731.26 520.85 742.27 507.67 750.63 493.86 755.94 479.52 758.26 464.77 758.01 449.72 756 434.49 753.24 419.21 750.9 403.99 750.07 393.03 735.18 380.61 729.25 365.26 733.06 348 736.97 338.26 736.36 327.91 733.04 317.02 726.72 305.61 717.48 293.77 705.84 281.55 692.59 269.04 678.77 256.31 665.45 243.44 653.66 230.52 644.17 217.62 637.49 204.81 633.69 192.16 632.5 179.73 633.28 167.56 635.13 155.7 637.01 144.17 637.92 132.99 636.95 122.17 633.48 111.7 627.24 101.56 618.32 91.73 607.16 82.18 594.51 72.86 581.31 72.92 569.83 73.62 558.35 74.9 546.86 76.65 535.38 78.75 523.9 81.02 512.41 83.29 500.93 85.38 489.45 87.12 477.97 88.39 466.48 89.07 455 89.13 443.52 88.55 432.04 87.37 420.55 85.7 409.07 83.66 397.59 81.41 386.11 79.13 374.62 76.99 363.14 75.17 351.66 73.8 340.18 73 328.69 72.82 317.21 73.29 305.73 74.35 294.25 75.94 282.76 77.92 271.28 80.15 259.8 82.44 248.32 84.61 236.84 86.51 225.35 87.97 213.87 99.28 213.15 110.53 211.93 121.65 209.63 132.6 205.8 143.31 200.19 153.74 192.82 163.84 183.93 173.59 173.97 182.94 163.5 191.9 153.18 200.44 143.61 208.59 135.29 223.62 124.26 237.74 117.71 250.92 114.63 263.99 110.34 270.67 106.27 277.56 100.66 284.76 93.52 292.35 85.05 300.42 75.64 309.02 65.81 318.23 56.09 328.08 47.03 338.63 39.04 349.89 32.42 368.2 25.34 374.53 23.42" stroke-dasharray="60 60" transform="rotate(0, 400, 400)" opacity="0.05"></path><path d="M367.77 35.95Q374.58 44.34 381.94 53.49 389.94 62.96 398.63 72.24 408.07 80.88 418.29 88.45 429.3 94.69 441.11 99.5 453.71 102.93 467.07 105.23 481.14 106.81 495.86 108.15 511.15 109.79 526.91 112.23 543.04 115.87 559.44 120.98 575.96 127.65 592.47 135.74 608.85 144.97 624.96 154.89 640.65 164.95 655.8 174.58 670.28 183.26 683.97 190.58 696.78 196.29 708.62 200.36 719.41 202.94 729.1 204.39 744.1 213.55 728.21 231.74 711.26 242.68 694.07 253.62 677.9 264.56 663.92 275.5 653.17 286.44 646.42 297.39 644.16 308.33 646.57 319.27 653.46 330.21 664.34 341.15 678.4 352.09 694.62 363.04 711.83 373.98 728.75 384.92 744.16 395.86 756.92 406.8 766.11 417.74 771.06 428.69 771.4 439.63 767.11 450.57 758.51 461.51 746.21 472.45 731.12 483.39 714.35 494.34 697.11 505.28 680.66 516.22 666.21 527.16 654.82 538.1 647.3 549.05 644.22 559.99 635.65 569.85 628.21 581.46 621.83 594.08 616.42 606.81 611.87 618.76 608.06 629.1 589.53 642.17 580.38 645.16 575.73 651.24 570.33 659.98 564.13 671.01 557.07 683.64 549.15 697.02 540.35 710.14 530.7 722.06 520.23 731.96 508.98 739.27 497.01 743.75 484.4 745.51 471.23 745.01 457.59 742.99 443.58 740.39 429.3 738.25 414.86 737.54 402.61 722.95 388.62 716.67 380.55 717.63 371.84 719.82 362.52 722.25 352.59 723.92 342.11 723.93 331.12 721.6 319.68 716.55 307.84 708.73 295.68 698.46 283.27 686.34 270.68 673.21 258 660.04 245.3 647.77 232.64 637.24 220.09 629.05 207.72 623.52 195.58 620.61 183.7 619.98 172.13 620.98 160.9 622.77 150.01 624.43 139.48 625.06 129.29 623.89 119.44 620.39 109.9 614.33 100.65 605.78 91.64 595.15 82.84 583.1 83.28 571.93 84.36 560.77 86 549.6 88.07 538.44 90.43 527.27 92.91 516.11 95.32 504.94 97.48 493.78 99.25 482.61 100.48 471.44 101.1 460.28 101.05 449.11 100.34 437.95 99.02 426.78 97.19 415.62 94.97 404.45 92.55 393.29 90.08 382.12 87.75 370.96 85.73 359.79 84.17 348.63 83.18 337.46 82.83 326.3 83.15 315.13 84.12 303.97 85.67 292.8 87.67 281.64 90 270.47 92.46 259.31 94.9 248.14 97.12 236.98 98.97 225.81 110.05 224.65 121.1 222.41 132.07 218.72 142.91 213.34 153.55 206.28 163.95 197.76 174.07 188.17 183.87 178.02 193.3 167.9 202.35 158.38 211.01 149.95 219.26 142.94 234.4 134.31 248.47 129.45 261.2 126.53 273.47 121.74 279.52 117.25 285.64 111.28 291.91 103.9 298.43 95.36 305.27 86.04 312.5 76.44 320.21 67.07 328.46 58.39 337.3 50.79 346.78 44.49 362.35 37.77 367.77 35.95" stroke-dasharray="41 42" transform="rotate(0, 400, 400)" opacity="0.08"></path><path d="M364.08 48.48Q372 56.61 380.54 65.48 389.75 74.67 399.65 83.75 410.26 92.27 421.59 99.84 433.63 106.19 446.34 111.19 459.69 114.84 473.63 117.34 488.08 119.01 502.99 120.26 518.24 121.57 533.75 123.43 549.41 126.25 565.11 130.35 580.73 135.9 596.14 142.9 611.24 151.17 625.9 160.4 640.01 170.12 653.47 179.85 666.18 189.06 678.06 197.29 689.04 204.19 699.05 209.56 715.54 215.25 728.96 217.87 729.07 224.42 708.67 240.89 692.31 251.49 676.27 262.08 661.64 272.68 649.41 283.28 640.41 293.88 635.26 304.48 634.3 315.08 637.6 325.68 644.94 336.28 655.81 346.88 669.48 357.47 685.02 368.07 701.38 378.67 717.43 389.27 732.1 399.87 744.38 410.47 753.45 421.07 758.67 431.67 759.71 442.27 756.49 452.86 749.22 463.46 738.41 474.06 724.78 484.66 709.27 495.26 692.92 505.86 676.85 516.46 662.14 527.06 649.81 537.66 640.68 548.26 635.38 558.86 625.82 570.15 617.34 582.29 609.89 594.48 603.4 605.91 593.38 622.63 585.47 632.57 571.81 630.72 564.19 635.82 560.55 643.1 556.37 652.7 551.55 664.11 546.04 676.66 539.8 689.5 532.79 701.76 525 712.61 516.44 721.41 507.12 727.73 497.06 731.44 486.3 732.7 474.91 731.99 462.94 729.99 450.46 727.56 437.56 725.61 424.31 725.02 417.75 715.93 410.58 709.4 394.1 705.15 375.81 706.63 365.68 708.94 355.04 710.76 343.94 711.28 332.44 709.82 320.61 705.94 308.51 699.49 296.22 690.62 283.8 679.76 271.32 667.56 258.86 654.84 246.48 642.46 234.23 631.23 222.18 621.83 210.36 614.72 198.83 610.07 187.6 607.79 176.71 607.49 166.16 608.56 155.96 610.25 146.11 611.73 136.59 612.2 127.38 611 118.46 607.64 109.79 601.93 101.34 593.91 93.05 583.94 93.91 573.1 95.38 562.27 97.37 551.43 99.74 540.6 102.34 529.76 104.97 518.93 107.48 508.09 109.68 497.26 111.42 486.43 112.59 475.59 113.11 464.76 112.95 453.92 112.1 443.09 110.64 432.26 108.66 421.42 106.29 410.59 103.7 399.75 101.06 388.92 98.56 378.08 96.35 367.25 94.6 356.42 93.41 345.58 92.88 334.75 93.03 323.91 93.87 313.08 95.32 302.25 97.29 291.41 99.65 280.58 102.24 269.75 104.88 258.91 107.39 248.08 109.6 237.24 120.44 234.98 131.29 231.31 142.09 226.04 152.79 219.18 163.35 210.94 173.72 201.67 183.85 191.84 193.69 181.97 203.22 172.59 212.39 164.17 221.19 157.04 229.6 151.39 245.02 144.93 259.29 141.41 271.92 138.37 283.81 132.91 289.47 128.01 295.06 121.71 300.67 114.13 306.37 105.56 312.24 96.39 318.35 87.06 324.78 78.04 331.6 69.76 338.89 62.54 346.7 56.58 359.58 50.2 364.08 48.48" stroke-dasharray="39 13" transform="rotate(0, 400, 400)" opacity="0.12"></path><path d="M363.8 61Q372.86 68.88 382.53 77.45 392.84 86.37 403.78 95.22 415.34 103.6 427.51 111.15 440.24 117.59 453.5 122.77 467.22 126.66 481.34 129.38 495.78 131.19 510.46 132.43 525.29 133.54 540.17 134.94 555 137.06 569.68 140.24 584.1 144.71 598.17 150.57 611.78 157.76 624.85 166.07 637.28 175.18 648.99 184.66 659.93 194.05 670.03 202.89 679.25 210.75 687.56 217.34 706.34 234.65 689.16 251.58 673.67 261.85 658.96 272.12 645.95 282.39 635.46 292.66 628.16 302.94 624.5 313.21 624.72 323.48 628.8 333.75 636.48 344.02 647.29 354.29 660.54 364.56 675.39 374.83 690.9 385.11 706.11 395.38 720.06 405.65 731.85 415.92 740.75 426.19 746.21 436.46 747.87 446.73 745.63 457.01 739.63 467.28 730.25 477.55 718.08 487.82 703.89 498.09 688.57 508.36 673.09 518.63 658.42 528.91 645.49 539.18 635.11 549.45 627.94 559.72 617.55 571.4 608.14 583.02 599.7 593.86 592.19 603.32 573.38 617.76 563.29 618.92 549.15 627.28 541.03 645.86 537.24 657.42 532.94 669.67 528.07 681.83 522.58 693.13 516.43 702.91 509.6 710.64 502.07 716.02 493.86 719.02 484.96 719.85 475.4 718.96 465.22 717 454.47 714.74 443.19 712.98 431.45 712.49 423.86 703.74 415.67 697.32 406.9 693.36 397.56 691.7 387.69 691.95 377.32 693.51 366.51 695.63 355.31 697.54 343.78 698.46 331.97 697.74 319.96 694.92 307.81 689.76 295.59 682.28 283.36 672.75 271.18 661.66 259.11 649.67 247.21 637.52 235.52 625.97 224.09 615.7 212.94 607.27 202.1 600.99 191.6 596.99 181.44 595.11 171.63 594.98 162.15 596.04 153.01 597.6 135.74 598.6 119.23 595.21 111.33 590 103.57 582.66 104.85 572.18 106.72 561.7 109.04 551.22 111.68 540.74 114.46 530.26 117.21 519.78 119.76 509.3 121.94 498.82 123.63 488.34 124.71 477.86 125.11 467.38 124.81 456.9 123.83 446.42 122.23 435.95 120.11 425.47 117.61 414.99 114.88 404.51 112.09 394.03 109.42 383.55 107.04 373.07 105.1 362.59 103.72 352.11 102.99 341.63 102.95 331.15 103.6 320.67 104.92 310.19 106.8 299.71 109.14 289.23 111.78 278.75 114.56 268.27 117.31 257.79 119.85 247.31 130.43 243.55 141.04 238.27 151.64 231.51 162.2 223.46 172.65 214.46 182.96 204.92 193.08 195.33 202.96 186.17 212.57 177.86 221.86 170.73 230.82 164.99 239.41 160.67 255.25 156.06 269.91 153.49 282.74 150.06 294.63 143.83 300.13 138.53 305.45 131.93 310.67 124.22 315.83 115.67 321.01 106.68 326.28 97.65 331.72 89.02 337.39 81.14 356.87 65.14 363.8 61" stroke-dasharray="12 38" transform="rotate(0, 400, 400)" opacity="0.15"></path><path d="M366.97 73.53Q377.04 81.14 387.67 89.42 398.84 98.05 410.54 106.67 422.74 114.89 435.39 122.39 448.45 128.89 461.85 134.24 475.54 138.36 489.44 141.33 503.47 143.33 517.55 144.65 531.59 145.66 545.51 146.73 559.22 148.28 572.62 150.65 585.64 154.12 598.19 158.85 610.2 164.88 621.59 172.13 632.31 180.37 642.3 189.29 651.51 198.5 659.92 207.56 667.52 216.07 674.28 223.65 690.65 238.39 698.7 243.1 684.56 253.04 669.87 262.99 655.47 272.94 642.21 282.88 630.87 292.83 622.09 302.77 616.4 312.72 614.12 322.67 615.4 332.61 620.15 342.56 628.09 352.51 638.77 362.45 651.56 372.4 665.72 382.34 680.41 392.29 694.8 402.24 708.02 412.18 719.33 422.13 728.04 432.08 733.67 442.02 735.87 451.97 734.53 461.92 729.72 471.86 721.71 481.81 710.98 491.76 698.16 501.7 683.98 511.65 669.28 521.6 654.91 531.54 641.71 541.49 630.46 551.44 621.8 561.38 610.72 572.39 600.52 582.57 591.22 591.39 582.78 598.46 568.81 605.7 557.12 607.59 538.37 608.58 530.54 619.7 527.83 628.78 524.96 639.34 521.83 650.83 518.38 662.59 514.53 673.94 510.22 684.24 499.74 698.54 487.53 706.5 472.27 705.49 455.2 701.93 445.66 700.36 435.6 699.96 426.96 691.54 417.78 685.25 408.09 681.2 397.93 679.3 387.35 679.21 376.39 680.44 365.11 682.35 353.57 684.26 341.83 685.46 329.95 685.36 317.99 683.47 306.01 679.51 294.07 673.38 282.23 665.23 270.53 655.38 259.03 644.35 247.75 632.75 236.75 621.24 226.04 610.49 215.65 601.06 205.59 593.4 195.87 587.75 186.49 584.17 177.44 582.51 160.42 583.62 144.23 586.08 129.12 584.79 114.43 578.48 116.15 568.38 118.39 558.28 121.01 548.19 123.86 538.09 126.78 527.99 129.59 517.9 132.14 507.8 134.27 497.7 135.86 487.61 136.82 477.51 137.08 467.41 136.65 457.32 135.53 447.22 133.8 437.12 131.55 427.03 128.93 416.93 126.07 406.83 123.15 396.74 120.34 386.64 117.8 376.54 115.68 366.45 114.1 356.35 113.16 346.25 112.91 336.16 113.36 326.06 114.49 315.97 116.23 305.87 118.49 295.77 121.12 285.68 123.98 275.58 126.89 265.48 129.7 255.39 139.99 250 150.34 243.24 160.71 235.31 171.08 226.52 181.39 217.26 191.6 207.98 201.68 199.09 211.57 190.99 221.23 183.98 230.64 178.26 239.75 173.88 248.53 170.76 264.84 167.62 280.02 165.59 293.3 161.56 305.51 154.47 311.06 148.8 316.35 141.96 321.42 134.17 326.33 125.7 331.12 116.93 335.87 108.24 345.54 93.04 355.66 80.76 364.06 75.07 366.97 73.53" stroke-dasharray="8 10" transform="rotate(0, 400, 400)" opacity="0.19"></path><path d="M373.29 86.06Q384.13 93.4 395.42 101.38 407.14 109.71 419.25 118.08 431.7 126.12 444.44 133.55 457.43 140.09 470.58 145.58 483.85 149.92 497.15 153.15 510.41 155.39 523.56 156.86 536.52 157.86 549.21 158.74 561.57 159.86 573.52 161.55 585 164.13 595.95 167.79 606.3 172.66 616.02 178.74 625.06 185.93 633.4 194.01 641 202.69 647.87 211.6 654 220.36 659.41 228.6 672.24 247.55 678.53 254.94 664.75 264.55 650.93 274.16 637.81 283.77 626.1 293.39 616.43 303 609.31 312.61 605.13 322.22 604.12 331.84 606.33 341.45 611.63 351.06 619.75 360.67 630.25 370.29 642.56 379.9 656.02 389.51 669.91 399.12 683.49 408.73 696.01 418.35 706.82 427.96 715.32 437.57 721.07 447.18 723.74 456.8 723.21 466.41 719.49 476.02 712.8 485.63 703.47 495.24 692.03 504.86 679.08 514.47 665.32 524.08 651.49 533.69 638.33 543.31 626.55 552.92 616.78 562.53 605.2 571.96 594.38 580.06 584.35 586.49 575.12 591.1 559.36 594.34 545.82 593.7 529.45 592.72 520.12 598.38 517.14 604.69 514.31 612.79 511.57 622.39 508.82 633.06 506 644.24 503.03 655.35 499.83 665.8 496.34 675.05 480.41 690.7 466.56 692.89 452.26 689.4 436.36 687.44 426.77 679.34 416.75 673.19 406.34 669.09 395.58 666.96 384.52 666.56 373.22 667.45 361.73 669.11 350.11 670.95 338.42 672.34 326.72 672.73 315.05 671.65 303.46 668.76 292.02 663.92 280.75 657.13 269.7 648.61 258.9 638.71 248.39 627.93 238.18 616.81 228.28 605.96 218.72 595.93 209.48 587.2 200.58 580.13 183.88 572.45 168.04 569.82 153.4 571.9 139.29 573.71 130.14 567.25 130.4 551.69 133.27 542 136.28 532.32 139.28 522.63 142.11 512.95 144.6 503.26 146.64 493.58 148.1 483.9 148.91 474.21 149.03 464.53 148.44 454.84 147.19 445.16 145.33 435.47 142.98 425.79 140.25 416.1 137.29 406.42 134.26 396.74 131.32 387.05 128.63 377.37 126.35 367.68 124.57 358 123.42 348.31 122.94 338.63 123.16 328.94 124.07 319.26 125.62 309.57 127.73 299.89 130.28 290.2 133.14 280.52 136.16 270.83 139.16 261.15 149.12 254.31 159.17 246.44 169.28 237.83 179.42 228.85 189.54 219.88 199.62 211.32 209.6 203.52 219.45 196.73 229.14 191.15 238.61 186.82 247.84 183.69 256.8 181.61 273.6 179.48 289.34 177.6 303.24 172.79 316.03 164.82 321.8 158.82 327.25 151.8 332.41 143.98 337.31 135.65 342.01 127.15 346.53 118.82 355.29 104.42 364.05 92.87 370.93 87.51 373.29 86.06" stroke-dasharray="20 45" transform="rotate(0, 400, 400)" opacity="0.22"></path><path d="M382.15 98.59Q393.43 105.66 405.03 113.34 416.92 121.37 429.05 129.46 441.36 137.32 453.8 144.64 466.32 151.2 478.86 156.81 491.34 161.36 503.72 164.84 515.91 167.34 527.87 169.02 539.52 170.12 550.81 170.92 561.68 171.74 572.08 172.92 581.97 174.73 591.29 177.43 600.02 181.19 608.12 186.08 615.59 192.1 622.4 199.13 628.55 206.98 634.06 215.36 638.93 223.97 643.18 232.45 649.76 247.22 654.87 259.07 650.95 268.93 632.47 284.17 620.77 293.43 610.67 302.69 602.65 311.95 597.12 321.21 594.35 330.47 594.47 339.73 597.48 348.98 603.24 358.24 611.45 367.5 621.71 376.76 633.52 386.02 646.29 395.28 659.38 404.54 672.17 413.8 684.01 423.06 694.31 432.31 702.58 441.57 708.4 450.83 711.48 460.09 711.67 469.35 708.97 478.61 703.51 487.87 695.55 497.12 685.49 506.38 673.82 515.64 661.13 524.9 648.04 534.16 635.19 543.42 623.22 552.68 612.72 561.93 600.81 569.19 589.55 574.89 578.97 578.9 569.09 581.28 551.78 581.54 536.54 579.59 517.22 581.73 506.03 590.44 502.49 597.73 499.23 606.48 496.18 616.34 493.27 626.86 490.43 637.55 487.59 647.88 481.57 664.74 474.99 676.92 459.7 679.29 446.65 676.35 440.39 675.11 433.65 674.9 423.35 667.14 412.74 661.14 401.87 657 390.79 654.68 379.54 653.97 368.19 654.53 356.78 655.92 345.36 657.63 333.98 659.12 322.7 659.88 311.55 659.46 300.57 657.53 289.8 653.86 279.28 648.4 269.02 641.23 259.06 632.59 249.4 622.84 240.05 612.42 231.04 601.84 222.34 591.61 213.97 582.2 205.9 574.02 190.76 563.28 176.38 557.53 162.99 558.09 150.01 560.13 141.79 556.09 142.74 542.11 145.8 532.86 148.92 523.62 151.95 514.37 154.73 505.12 157.12 495.87 159.02 486.62 160.32 477.38 160.97 468.13 160.92 458.88 160.18 449.63 158.8 440.39 156.83 431.14 154.37 421.89 151.55 412.64 148.51 403.39 145.39 394.15 142.34 384.9 139.53 375.65 137.09 366.4 135.13 357.15 133.76 347.91 133.04 338.66 133.01 329.41 133.67 320.16 134.99 310.91 136.9 301.66 139.31 292.42 142.1 283.17 145.12 273.92 148.24 264.67 157.84 256.82 167.55 248.38 177.35 239.67 187.21 231.06 197.09 222.88 206.97 215.44 216.81 208.98 226.57 203.63 236.22 199.46 245.71 196.42 255.01 194.37 264.1 193.08 281.32 191.51 297.63 189.42 312.23 183.72 325.75 174.88 331.87 168.61 337.64 161.48 343.07 153.69 348.19 145.55 353.03 137.35 357.61 129.41 366.1 115.83 374.21 104.99 380.16 99.96 382.15 98.59" stroke-dasharray="33 17" transform="rotate(0, 400, 400)" opacity="0.25"></path><path d="M392.7 111.12Q415.57 125.28 438.98 140.82 462.55 155.66 485.86 167.89 508.48 176.37 529.97 181.08 549.97 183.17 568.12 184.66 584.19 187.75 598 194.24 609.5 204.9 618.75 219.23 625.91 235.57 631.27 251.62 635.21 265.1 638.22 274.49 614.65 292.26 595.97 310.02 585.51 327.78 585.15 345.55 594.95 363.31 613.15 381.07 636.51 398.84 660.85 416.6 681.82 434.36 695.67 452.12 699.93 469.89 693.84 487.65 678.48 505.41 656.6 523.17 632.11 540.94 609.39 558.7 585.84 566.88 564.54 569.38 545.66 568.01 529.28 565.84 515.32 566.21 503.62 571.74 493.9 583.49 485.81 600.64 478.93 620.65 472.8 640.11 466.97 655.7 460.98 665.25 446.22 666 427.74 662.37 406.16 649.11 384.07 642.46 361.85 641.7 339.85 644.33 318.41 646.85 297.79 645.84 278.21 639.01 259.8 625.86 242.64 607.83 226.73 587.82 211.97 569.27 198.25 555.15 185.37 547.02 173.12 544.62 158.34 538.09 161.77 512.66 167.44 495.07 171.42 477.47 173 459.88 171.89 442.29 168.3 424.7 162.87 407.11 156.56 389.51 150.51 371.92 145.8 354.33 143.26 336.74 143.35 319.14 146.06 301.55 150.9 283.96 157.01 266.37 175.52 249.7 194.49 233.75 213.7 220.7 232.93 211.8 251.9 206.99 270.35 205.01 288.03 203.75 304.69 200.93 320.16 194.79 334.29 184.63 347.02 170.97 358.36 155.39 368.39 139.99 377.28 126.8 389 114.12 392.7 111.12" stroke-dasharray="5 56" transform="rotate(0, 400, 400)" opacity="0.29"></path><path d="M403.95 123.65Q426.03 137.21 448.12 152.14 469.87 166.59 490.91 178.83 510.9 187.71 529.52 192.98 546.49 195.44 561.62 196.69 574.76 198.7 585.86 203.28 594.98 211.54 602.25 223.58 607.89 238.44 612.22 254.33 615.63 269.14 618.56 281.02 597.57 297.98 582.03 314.94 574.48 331.9 576.15 348.85 586.75 365.81 604.57 382.77 626.7 399.72 649.53 416.68 669.34 433.64 682.89 450.6 687.99 467.55 683.78 484.51 670.98 501.47 651.65 518.42 628.95 535.38 606.59 552.34 583.03 556.26 561.26 556.01 541.51 553.95 523.92 552.98 508.53 555.73 495.26 563.83 483.97 577.42 474.43 595.11 466.32 614.32 459.32 632.01 447.04 650.55 434.6 653.8 427.4 650.84 419.19 649.84 397.65 637.09 376.09 630.3 354.85 628.97 334.19 631.08 314.37 633.69 295.56 633.75 277.9 628.97 261.43 618.42 246.16 602.81 232.02 584.23 218.91 565.55 206.65 549.66 195.06 538.59 183.93 533.05 170.72 524.66 174.78 500.47 180.21 483.79 183.8 467.12 184.98 450.44 183.55 433.76 179.75 417.08 174.19 400.41 167.78 383.73 161.57 367.05 156.57 350.37 153.59 333.69 153.12 317.02 155.24 300.34 159.6 283.66 165.49 266.98 183.13 251.19 201.3 237.52 219.84 227.39 238.55 221.23 257.19 218.36 275.54 217.19 293.35 215.72 310.38 212.04 326.43 204.92 341.33 194.09 354.96 180.32 367.24 165.19 378.18 150.59 387.84 138.26 400.16 126.44 403.95 123.65" stroke-dasharray="17 44" transform="rotate(0, 400, 400)" opacity="0.32"></path><path d="M414.83 136.17Q435.42 149.14 455.58 163.44 475.02 177.46 493.46 189.64 510.63 198.85 526.31 204.7 540.36 207.65 552.67 208.93 563.19 210.2 571.99 213.19 579.16 219.2 584.89 228.78 589.46 241.58 593.16 256.42 596.37 271.57 599.48 285.18 581.31 301.29 568.87 317.39 564 333.5 567.43 349.61 578.63 365.71 595.97 381.82 616.86 397.93 638.22 414.03 656.87 430.14 670.07 446.25 675.85 462.35 673.36 478.46 662.97 494.56 646.21 510.67 625.57 526.78 604.11 542.88 580.88 543.58 559.02 541.97 538.78 540.46 520.33 541.46 503.78 546.78 489.15 557.16 476.39 572.04 465.36 589.72 455.87 607.72 447.69 623.5 434.25 638.84 421.94 640.79 415.64 638.11 408.81 637.32 388.02 625.08 367.63 618.2 347.89 616.33 328.99 617.89 311.1 620.42 294.31 621.28 278.68 618.27 264.19 610.19 250.79 597.15 238.37 580.51 226.8 562.5 215.9 545.7 205.48 532.31 195.36 523.66 185.31 519.87 175.17 519.82 181.67 504.05 187.93 488.27 193 472.5 196.15 456.73 196.91 440.96 195.16 425.18 191.16 409.41 185.51 393.64 179.04 377.86 172.71 362.09 167.45 346.32 164.06 330.55 163.02 314.77 164.5 299 168.27 283.22 173.77 267.45 190.46 253.64 207.73 242.81 225.46 235.62 243.49 231.83 261.64 230.32 279.69 229.42 297.44 227.37 314.65 222.69 331.12 214.62 346.67 203.26 361.12 189.54 374.38 174.96 386.36 161.21 397.06 149.74 410.67 138.78 414.83 136.17" stroke-dasharray="59 14" transform="rotate(0, 400, 400)" opacity="0.36"></path><path d="M424.29 148.7Q442.84 161.06 460.65 174.71 477.48 188.26 493.15 200.31 507.48 209.79 520.35 216.19 531.7 219.72 541.51 221.26 556.11 225.05 567.06 235.09 570.95 245.47 574.37 258.5 577.67 272.97 581.18 287.29 565.95 302.51 556.49 317.74 554.05 332.96 558.97 348.19 570.58 363.41 587.33 378.64 606.98 393.86 626.9 409.09 644.42 424.31 657.2 439.53 663.54 454.76 662.57 469.98 654.43 485.21 640.22 500.43 621.82 515.65 601.71 530.88 579.16 529.75 557.57 528.14 537.2 528.16 518.27 531.57 500.9 539.38 485.19 551.58 471.15 567.15 458.75 584.29 447.87 600.78 438.37 614.57 423.04 626.94 409.81 627.8 403.75 625.39 397.6 624.79 378.2 613.09 359.5 606.16 341.68 603.8 324.85 604.78 309.08 607.11 294.42 608.51 280.83 606.96 268.28 601.13 256.65 590.68 245.84 576.34 235.67 559.7 225.99 542.89 216.62 528 207.38 516.7 198.1 509.79 188.61 507.07 195.17 492.18 201.17 477.28 205.8 462.39 208.45 447.49 208.77 432.6 206.71 417.7 202.54 402.81 196.82 387.91 190.33 373.01 183.92 358.12 178.46 343.22 174.67 328.33 173.07 313.43 173.86 298.54 176.95 283.64 181.91 268.74 197.57 257.67 213.84 249.87 230.65 245.35 247.86 243.36 265.33 242.58 282.88 241.47 300.34 238.55 317.5 232.81 334.17 223.89 350.16 212.17 365.29 198.65 379.42 184.73 392.44 171.86 404.27 161.24 419.58 151.12 424.29 148.7" stroke-dasharray="30 22" transform="rotate(0, 400, 400)" opacity="0.39"></path><path d="M431.43 161.23Q447.58 172.97 462.79 185.96 476.91 198.99 489.84 210.84 501.48 220.5 511.79 227.42 527.91 232.98 540.52 235.37 548.91 244.16 556.14 261.23 559.74 274.12 563.8 288.02 551.55 302.35 544.89 316.68 544.61 331 550.75 345.33 562.57 359.66 578.65 373.99 597.06 388.32 615.57 402.65 631.98 416.97 644.3 431.3 651.05 445.63 651.42 459.96 645.37 474.29 633.62 488.62 617.59 502.95 599.2 517.28 577.6 515.77 556.62 515.34 536.5 517.56 517.46 523.49 499.65 533.44 483.2 546.88 468.18 562.53 454.6 578.66 442.45 593.41 431.64 605.18 414.03 614.86 399.11 614.82 392.72 612.69 386.61 612.26 369.12 601.1 352.52 594.17 336.89 591.38 322.29 591.78 308.72 593.78 296.16 595.5 284.56 595.1 273.82 591.23 263.83 583.27 254.45 571.43 245.53 556.72 236.92 540.74 228.45 525.31 219.96 512.12 211.33 502.39 202.41 496.61 208.84 482.55 214.45 468.5 218.57 454.44 220.69 440.38 220.56 426.33 218.19 412.27 213.88 398.21 208.14 384.16 201.66 370.1 195.21 356.04 189.58 341.99 185.45 327.93 183.3 313.87 183.4 299.82 185.73 285.76 190.02 271.71 204.58 263.71 219.77 258.76 235.53 256.36 251.78 255.5 268.39 254.85 285.25 253.09 302.19 249.13 319.04 242.35 335.64 232.74 351.8 220.84 367.36 207.67 382.17 194.49 396.07 182.54 408.96 172.77 426.1 163.46 431.43 161.23" stroke-dasharray="20 38" transform="rotate(0, 400, 400)" opacity="0.42"></path><path d="M435.59 173.77Q449.16 184.89 461.73 197.19 473.23 209.66 483.6 221.24 492.84 231 500.95 238.36 520.7 246.8 531.42 251.62 534.99 257.03 538.7 265.17 542.78 275.81 547.48 288.28 538.13 301.72 534.04 315.15 535.63 328.59 542.74 342.03 554.59 355.46 569.93 368.9 587.1 382.34 604.26 395.77 619.56 409.21 631.37 422.65 638.41 436.09 639.93 449.52 635.77 462.96 626.37 476.4 612.74 489.84 596.35 503.27 575.96 502.7 555.89 504.27 536.37 508.96 517.59 517.2 499.72 528.75 482.91 542.76 467.25 557.92 452.8 572.67 439.59 585.52 427.62 595.32 416.83 601.47 407.14 604.02 390.96 601.86 376.89 599.73 361.66 589.12 347.38 582.24 334.07 579.06 321.72 578.89 310.3 580.49 299.75 582.29 289.97 582.74 280.87 580.53 272.32 574.85 264.18 565.55 256.32 553.14 248.6 538.7 240.88 523.67 233.03 509.57 224.93 497.73 216.49 489.08 222.64 475.82 227.74 462.56 231.27 449.3 232.83 436.04 232.26 422.78 229.62 409.52 225.19 396.26 219.46 383 213.02 369.74 206.59 356.48 200.84 343.22 196.4 329.96 193.73 316.7 193.14 303.44 194.67 290.18 198.17 276.92 211.59 271.89 225.62 269.29 240.25 268.31 255.4 267.87 271.01 266.82 286.96 264.11 303.15 259.03 319.44 251.32 335.68 241.2 351.71 229.31 367.4 216.65 382.57 204.29 397.1 193.27 410.85 184.34 429.65 175.82 435.59 173.77" stroke-dasharray="52 32" transform="rotate(0, 400, 400)" opacity="0.46"></path><path d="M436.36 186.29Q447.38 196.79 457.46 208.4 466.58 220.27 474.73 231.49 481.95 241.26 488.3 248.97 504.58 258.52 514.35 261.83 522.54 271.97 532.3 289.07 525.72 301.63 523.92 314.2 527.09 326.77 534.91 339.33 546.64 351.9 561.17 364.46 577.11 377.03 592.94 389.59 607.16 402.16 618.41 414.73 625.63 427.29 628.11 439.86 625.64 452.42 618.44 464.99 607.2 477.56 592.98 490.12 574 491.43 555.11 495.4 536.48 502.45 518.32 512.52 500.77 525.01 483.97 538.95 468.05 553.1 453.09 566.18 439.15 577.07 426.26 585 414.43 589.67 403.63 591.32 385.3 589.01 369.37 587.2 356.57 577.16 344.66 570.37 333.63 566.87 323.43 566.15 305.54 568.63 289.39 569.08 282.05 565.39 274.95 558.53 267.95 548.6 260.95 536.24 253.83 522.44 246.49 508.44 238.83 495.48 230.79 484.63 236.48 472.13 240.99 459.63 243.87 447.13 244.86 434.63 243.87 422.12 240.98 409.62 236.47 397.12 230.77 384.62 224.43 372.12 218.05 359.62 212.23 347.12 207.53 334.62 204.39 322.12 203.13 309.62 203.84 297.12 206.48 284.62 218.72 282.04 231.55 281.04 244.96 280.71 258.91 280.07 273.37 278.18 288.25 274.35 303.48 268.19 318.94 259.71 334.53 249.29 350.13 237.62 365.59 225.58 380.79 214.11 395.58 204.03 409.86 195.93 429.92 188.17 436.36 186.29" stroke-dasharray="1 59" transform="rotate(0, 400, 400)" opacity="0.49"></path><path d="M433.66 198.82Q442.36 208.68 450.25 219.58 457.35 230.82 463.7 241.63 474.14 258.26 483.04 269.13 496.49 273.35 507.04 278.19 512.31 283.66 518.33 291.31 514.29 303.04 514.5 314.76 518.94 326.49 527.23 338.21 538.69 349.94 552.35 361.66 567.08 373.39 581.62 385.11 594.78 396.84 605.44 408.57 612.71 420.29 615.98 432.02 614.99 443.74 609.8 455.47 600.87 467.2 588.92 478.92 571.51 482.58 553.99 488.91 536.54 497.9 519.29 509.12 502.4 521.84 486 535.1 470.21 547.84 455.12 559.07 440.81 568.01 427.34 574.21 414.76 577.59 403.06 578.51 392.25 577.66 382.3 576.01 373.16 574.66 364.78 574.67 354.35 565.21 344.71 558.56 327.81 554.48 312.62 555.65 299.35 555.93 286.61 550.27 280.29 542.83 273.84 532.84 267.18 520.93 260.23 507.96 252.93 494.96 245.21 482.93 250.31 471.15 254.13 459.38 256.35 447.61 256.77 435.84 255.37 424.07 252.27 412.3 247.71 400.53 242.09 388.76 235.87 376.99 229.58 365.22 223.74 353.45 218.85 341.68 215.3 329.91 213.41 318.14 219.7 300.03 237.68 293.46 249.82 293.05 262.5 291.68 275.69 288.7 289.36 283.71 303.43 276.6 317.85 267.57 332.53 257.08 347.36 245.81 362.26 234.52 377.1 223.99 391.78 214.85 406.17 207.55 426.91 200.53 433.66 198.82" stroke-dasharray="3 34" transform="rotate(0, 400, 400)" opacity="0.53"></path><path d="M427.76 211.35Q434.5 220.57 440.61 230.76 446.13 241.32 451.14 251.65 459.74 268.37 467.54 280.2 481.5 284.93 493.12 287.51 501.41 298.65 505.72 317.55 511.14 328.47 519.68 339.39 530.74 350.31 543.49 361.23 557.01 372.15 570.31 383.07 582.41 393.99 592.45 404.91 599.67 415.83 603.56 426.75 603.83 437.67 600.45 448.6 593.69 459.52 584.02 470.44 568.28 476.43 552.3 484.7 536.21 494.94 520.15 506.57 504.22 518.84 488.56 530.91 473.27 541.95 458.44 551.25 444.16 558.34 430.5 562.98 417.51 565.27 405.24 565.6 393.71 564.62 382.92 563.13 372.87 562.02 363.53 562.15 355.3 553.27 347.66 546.8 334.12 542.02 321.7 542.34 310.3 543.61 298.97 540.77 293.14 535.63 287.1 528.12 280.78 518.5 274.13 507.3 267.09 495.25 259.65 483.17 264.05 472.12 267.13 461.06 268.66 450.01 268.54 438.95 266.77 427.9 263.48 416.84 258.92 405.79 253.41 394.74 247.36 383.68 241.2 372.63 235.4 361.57 230.37 350.52 226.48 339.47 224.01 328.41 228.48 311.76 244.16 305.89 255.01 304.79 266.36 302.35 278.22 298.17 290.55 292.12 303.33 284.27 316.52 274.95 330.04 264.63 343.84 253.93 357.85 243.5 371.97 233.93 386.11 225.73 400.19 219.21 420.94 212.9 427.76 211.35" stroke-dasharray="32 56" transform="rotate(0, 400, 400)" opacity="0.56"></path><path d="M419.22 223.87Q424.44 232.46 429.23 241.91 433.66 251.78 437.78 261.55 445.37 278.14 452.77 290.73 467.82 296.87 480.63 298.43 490.65 306.31 497.53 322.9 503.64 333.05 512.23 343.2 522.76 353.35 534.56 363.5 546.9 373.65 558.99 383.79 570.07 393.94 579.45 404.09 586.53 414.24 590.86 424.39 592.18 434.54 590.39 444.69 585.62 454.84 578.17 464.99 564.14 472.85 549.8 482.37 535.23 493.07 520.55 504.37 505.84 515.6 491.21 526.1 476.76 535.28 462.55 542.68 448.69 548.05 435.23 551.34 422.24 552.73 409.78 552.63 397.87 551.59 386.55 550.28 375.85 549.4 365.76 549.62 353.58 536.16 342.43 528.89 324.66 530.4 311.8 530.1 300.38 520.78 288.02 505.64 281.21 495.35 274.01 484.27 277.62 473.94 279.93 463.6 280.79 453.26 280.15 442.92 278.05 432.59 274.63 422.25 270.09 411.91 264.73 401.57 258.87 391.24 252.9 380.9 247.19 370.56 242.09 360.22 237.94 349.89 234.98 339.55 237.71 323.92 251.13 317.65 260.68 315.47 270.7 311.8 281.18 306.49 292.12 299.58 303.51 291.27 315.31 281.92 327.51 272 340.04 262.03 352.88 252.53 365.95 243.95 379.19 236.67 392.53 230.9 412.56 225.27 419.22 223.87" stroke-dasharray="32 25" transform="rotate(0, 400, 400)" opacity="0.59"></path><path d="M408.84 236.4Q413.02 244.34 416.97 253.06 420.74 262.2 424.4 271.36 431.67 287.59 439.21 300.67 455.63 308.82 469.58 310.52 480.99 316.13 489.86 330.77 496.4 340.17 504.84 349.57 514.75 358.97 525.58 368.37 536.76 377.77 547.68 387.17 557.75 396.58 566.45 405.98 573.29 415.38 577.91 424.78 580.06 434.18 579.63 443.58 576.65 452.98 571.26 462.38 558.95 471.36 546.29 481.28 533.34 491.65 520.18 501.97 506.88 511.72 493.53 520.41 480.19 527.69 466.93 533.3 453.84 537.16 440.96 539.31 428.37 540.01 416.11 539.61 404.23 538.58 392.77 537.46 374.04 533.1 361.6 523.43 345.96 517.28 334.67 518.01 324.7 517.74 313.95 513.71 308.04 508.86 301.78 502.32 295.16 494.26 288.17 485.01 290.94 475.4 292.47 465.79 292.69 456.19 291.59 446.58 289.21 436.97 285.69 427.37 281.23 417.76 276.05 408.15 270.43 398.55 264.69 388.94 259.12 379.33 254.03 369.73 249.69 360.12 246.33 350.51 247.46 335.58 258.71 328.15 267 324.72 275.7 319.88 284.81 313.64 294.33 306.16 304.27 297.69 314.61 288.6 325.35 279.28 336.46 270.17 347.91 261.65 359.67 254.08 371.69 247.69 383.93 242.63 402.59 237.65 408.84 236.4" stroke-dasharray="37 23" transform="rotate(0, 400, 400)" opacity="0.63"></path><path d="M397.62 248.94Q404.73 264.2 411.77 281.09 419.14 297.11 427.26 309.99 436.54 318.39 447.34 322.32 459.98 323.17 474.68 323.32 482.66 340.65 497.5 357.98 516.53 375.32 536.36 392.65 553.44 409.98 564.73 427.31 568.2 444.64 563.24 461.97 541.64 480.66 518.78 498.87 495.1 513.67 471.04 523.14 447.06 526.96 423.56 526.55 400.93 524.67 379.47 524.56 371.69 511.81 363.98 504.95 355.97 503.3 347.33 504.64 337.79 505.85 327.14 503.93 315.23 496.86 302.02 484.21 304.73 466.51 302.83 448.8 296.68 431.1 287.36 413.4 276.55 395.69 266.17 377.99 258.08 360.28 253.73 342.57 267.01 336.95 281.53 326.55 297.42 311.98 314.78 295.09 333.59 278.4 353.79 264.31 375.22 254.4 397.62 248.94 397.62 248.94 397.62 248.94" stroke-dasharray="39 60" transform="rotate(0, 400, 400)" opacity="0.66"></path><path d="M386.63 261.46Q393.44 275.33 400.61 290.73 408.45 305.8 417.24 318.68 427.24 328.09 438.7 333.56 451.77 335.68 466.59 335.86 475.84 351.73 490.16 367.59 507.41 383.46 525.04 399.32 540.45 415.19 551.34 431.05 556.12 446.92 554.06 462.78 535.71 479.7 516.11 494.64 495.55 505.78 474.36 512.24 452.86 514.34 431.37 513.5 410.21 511.92 389.64 512.03 382.93 500.25 375.88 493.28 368.23 490.78 359.78 491.34 350.36 492.76 339.87 492.66 328.23 489.1 315.45 481.02 316.64 464.88 313.88 448.73 307.58 432.59 298.68 416.44 288.49 400.3 278.52 384.15 270.25 368.01 264.9 351.86 276.13 343.79 288.33 331.88 301.62 317.21 316.14 301.51 331.92 286.77 348.98 274.66 367.25 266.21 386.63 261.46 386.63 261.46 386.63 261.46" stroke-dasharray="2 50" transform="rotate(0, 400, 400)" opacity="0.69"></path><path d="M376.91 273.99Q383.9 286.45 391.51 300.32 399.92 314.23 409.33 326.77 419.88 336.79 431.7 343.65 444.87 347.37 459.43 348.59 469.33 362.97 482.79 377.35 498.21 391.73 513.72 406.1 527.46 420.48 537.78 434.86 543.43 449.24 543.74 463.62 528.44 477.62 512 488.94 494.59 496.68 476.44 500.67 457.75 501.5 438.77 500.46 419.71 499.21 400.81 499.5 394.53 488.74 387.67 481.8 380.08 478.6 371.64 478.27 362.28 479.38 351.94 480.22 340.63 479.14 328.37 474.94 328.18 460.4 324.72 445.86 318.4 431.33 309.99 416.79 300.5 402.25 291.07 387.72 282.83 373.18 276.77 358.65 286.14 348.7 296.21 336.12 307.11 322.08 318.95 308.01 331.83 295.33 345.78 285.15 368.86 276.02 376.91 273.99" stroke-dasharray="32 23" transform="rotate(0, 400, 400)" opacity="0.73"></path><path d="M369.39 286.52Q376.8 297.57 384.9 309.87 393.81 322.45 403.63 334.3 414.42 344.49 426.25 352.37 439.13 357.64 453.07 360.46 463.04 373.32 475.39 386.18 488.94 399.03 502.4 411.89 514.49 424.75 524.06 437.6 530.19 450.46 532.3 463.32 519.81 473.81 506.34 481.61 491.99 486.44 476.9 488.52 461.19 488.51 445.01 487.45 428.53 486.54 411.89 486.98 405.61 477.26 398.67 470.52 390.99 466.78 382.53 465.57 373.26 466.03 363.17 467.03 352.3 467.37 340.67 465.96 339.3 453.06 335.33 440.17 329.14 427.28 321.31 414.39 312.6 401.5 303.82 388.62 295.83 375.73 289.37 362.84 297.06 351.92 305.23 339.58 313.99 326.82 323.42 314.69 333.63 304.12 344.66 295.78 362.99 288.23 369.39 286.52" stroke-dasharray="9 48" transform="rotate(0, 400, 400)" opacity="0.76"></path><path d="M364.79 299.04Q372.59 308.69 381.04 319.39 390.19 330.51 400.08 341.35 410.75 351.23 422.19 359.61 434.4 366.09 447.36 370.55 456.91 381.84 467.92 393.14 479.6 404.43 491.08 415.72 501.54 427.02 510.21 438.31 516.45 449.61 519.81 460.9 509.84 467.87 499.09 472.59 487.61 475.15 475.46 475.9 462.72 475.44 449.48 474.5 435.82 473.91 421.84 474.45 415.37 465.83 408.27 459.44 400.52 455.35 392.13 453.36 383.08 453 373.4 453.6 363.12 454.38 352.29 454.54 349.99 443.31 345.72 432.09 339.79 420.86 332.63 409.64 324.77 398.42 316.77 387.19 309.23 375.97 302.7 364.75 308.92 353.92 315.43 342.67 322.32 331.71 329.65 321.7 337.51 313.21 345.95 306.56 359.91 300.46 364.79 299.04" stroke-dasharray="18 2" transform="rotate(0, 400, 400)" opacity="0.80"></path><path d="M363.53 311.57Q371.48 319.81 379.96 328.9 388.98 338.44 398.54 348 408.65 357.13 419.3 365.42 430.48 372.52 442.14 378.21 450.84 387.91 460.36 397.6 470.18 407.3 479.77 416.99 488.62 426.68 496.26 436.37 500.43 452.87 490.26 462.02 481.38 463.01 471.95 462.96 462.03 462.34 451.65 461.62 440.86 461.32 429.72 461.92 423.08 454.44 415.94 448.55 399.92 442.45 382.49 440.43 366.62 436.45 355.88 422.43 350.35 412.87 343.95 403.31 337.01 393.75 329.91 384.19 323.02 374.63 316.73 365.07 321.68 355.35 326.78 345.84 332.09 336.99 337.65 329.15 356.75 314.9 363.53 311.57" stroke-dasharray="57 4" transform="rotate(0, 400, 400)" opacity="0.83"></path><path d="M365.75 324.11Q381.52 338.42 398.74 354.38 417.36 369.96 437.25 383.2 452.68 399.34 468.45 415.47 481.09 440.89 466.32 449.85 451.21 448.83 434.76 449.39 421.28 437.84 406.44 430.82 390.37 428.01 373.24 428.07 365.8 412.25 355.27 396.43 343.22 380.61 331.42 364.79 339.2 349.54 347.34 337.12 360.92 326.36 365.75 324.11" stroke-dasharray="15 49" transform="rotate(0, 400, 400)" opacity="0.86"></path><path d="M371.22 336.63Q385.37 347.96 400.34 360.61 416.08 373.55 432.5 385.7 444.86 398.56 457.14 411.41 458.11 433.49 436.49 436.86 424.09 427.31 410.89 420.59 396.99 416.73 382.51 415.28 375.48 402.71 366.59 390.14 356.68 377.56 346.71 364.99 352.59 354.17 358.53 345.71 367.96 338.27 371.22 336.63" stroke-dasharray="59 18" transform="rotate(0, 400, 400)" opacity="0.90"></path><path d="M379.44 349.16Q390.99 357.55 402.91 366.82 415.18 376.56 427.74 386.32 436.88 395.9 445.81 405.48 436.36 419.28 413.49 411.11 402.36 406.88 390.97 404.22 384.92 394.83 377.9 385.45 368.53 368.06 370.96 354.95 377.3 350.26 379.44 349.16" stroke-dasharray="39 39" transform="rotate(0, 400, 400)" opacity="0.93"></path><path d="M389.61 361.69Q406 373.15 422.81 385.97 425.25 403.57 398.65 395.64 389.21 383.15 378.72 370.67 386.93 363.28 389.61 361.69" stroke-dasharray="5 29" transform="rotate(0, 400, 400)" opacity="0.97"></path></g></svg>