<?xml version="1.0" encoding="utf-8"?>
<!-- Generator: Adobe Illustrator 24.0.0, SVG Export Plug-In . SVG Version: 6.00 Build 0)  -->
<svg version="1.1" id="Vrstva_1" xmlns="http://www.w3.org/2000/svg" xmlns:xlink="http://www.w3.org/1999/xlink" x="0px" y="0px"
	 viewBox="0 0 1000 1000" style="enable-background:new 0 0 1000 1000;" xml:space="preserve">
<style type="text/css">
	.st0{fill:#0000FF;}
</style>
<image style="display:none;overflow:visible;" width="3264" height="3264" xlink:href="../../../Users/uzivatel/Downloads/20220116_115230.png"  transform="matrix(0.3064 0 0 0.3064 -2 2)">
</image>
<g>
	<path d="M241.5,498.5c0,0-39,253,261,253s259-252,259-252L503,662L241.5,498.5z"/>
	<polygon points="503,642 61,327 501,251 942,326 	"/>
	<path d="M912.5,630.5L912.5,630.5c-14.9,0-27-12.1-27-27v-186c0-14.9,12.1-27,27-27l0,0c14.9,0,27,12.1,27,27v186
		C939.5,618.4,927.4,630.5,912.5,630.5z"/>
</g>
<path class="st0" d="M59,370"/>
</svg>
