<?xml version="1.0" standalone="no"?>
<!DOCTYPE svg PUBLIC "-//W3C//DTD SVG 20010904//EN" "http://www.w3.org/TR/2001/REC-SVG-20010904/DTD/svg10.dtd">
<svg version="1.0" xmlns="http://www.w3.org/2000/svg"
    width="361.000000pt" height="359.000000pt" viewBox="0 0 361.000000 359.000000"
    preserveAspectRatio="xMidYMid meet">

    <defs>
        <linearGradient id="Gradient1" x1="0" x2="0" y1="0" y2="1">
            <stop offset="0%" stop-color="#29f19c" />
            <stop offset="100%" stop-color="#02a1f9" />
        </linearGradient>
    </defs>
    <g transform="translate(0.000000,359.000000) scale(0.100000,-0.100000)"
        fill="url(#Gradient1)" stroke="none">
        <path
            d="M1545 3577 c-3 -7 -39 -102 -80 -212 -42 -110 -87 -229 -100 -265
-14 -36 -69 -182 -122 -325 l-98 -259 -110 -32 c-195 -55 -310 -107 -455 -202
-319 -211 -508 -547 -561 -996 -16 -132 -6 -579 15 -708 16 -96 69 -331 104
-458 l17 -65 820 4 c451 2 823 5 827 8 10 5 -2 1165 -11 1176 -4 4 -109 4
-234 1 l-227 -7 0 -354 0 -353 -220 0 c-121 0 -220 3 -220 6 0 6 25 77 215
599 68 187 166 459 219 605 53 145 102 270 109 276 25 25 500 45 591 25 29 -6
31 -10 103 -251 40 -135 80 -270 89 -300 8 -30 19 -66 24 -80 5 -14 18 -56 29
-95 11 -38 49 -169 85 -290 36 -121 115 -389 176 -595 61 -206 116 -387 122
-402 l10 -28 257 0 256 1 56 47 c142 120 236 276 299 496 43 150 60 292 60
491 0 251 -33 443 -109 642 -110 284 -334 527 -631 685 -97 52 -304 129 -398
148 -37 8 -66 19 -71 29 -8 15 -64 190 -96 301 -7 25 -50 164 -95 310 -44 146
-91 297 -102 335 -12 39 -26 75 -32 81 -16 17 -506 27 -511 11z m250 -554 c15
-71 86 -367 101 -420 6 -22 5 -22 -135 -25 -78 -2 -141 1 -141 5 0 7 32 114
121 406 10 35 19 72 19 81 0 14 8 30 16 30 1 0 10 -35 19 -77z m869 -1158
c280 -159 437 -409 466 -742 12 -131 2 -247 -30 -350 -21 -71 -88 -204 -106
-210 -5 -2 -22 36 -36 84 -14 49 -56 185 -93 303 -37 118 -73 235 -80 260 -25
84 -166 545 -191 620 -13 41 -24 76 -24 77 0 9 24 -2 94 -42z m-1784 -47 c0
-2 -32 -86 -70 -188 -39 -102 -130 -342 -203 -535 l-132 -350 -8 60 c-11 78
-1 331 17 420 40 201 125 363 259 493 70 69 137 118 137 100z" />
    </g>
</svg>